<svg height="702" width="720" xmlns="http://www.w3.org/2000/svg">
<rect height="702" fill="#555" width="720"></rect>
<text fill="#7f7" font-family="Courier New" font-size="12" xml:space="preserve">
<tspan x="10" y="26"></tspan>

<tspan x="10" y="42">[MODE_BUILD=buildApp] - 2018-05-03T21:26:20.046Z - npm-testing /home/travis/build/kaizhu256/node\</tspan>
<tspan x="10" y="58">-swgg-google-all</tspan>

<tspan x="10" y="74"></tspan>

<tspan x="10" y="90"></tspan>

<tspan x="10" y="106">buildApp - merged test-report from file /home/travis/build/kaizhu256/node-swgg-google-all/tmp/bu\</tspan>
<tspan x="10" y="122">ild/test-report.json</tspan>

<tspan x="10" y="138">override assets assets.swgg.swagger.json</tspan>

<tspan x="10" y="154">&gt; server listening on http-port 56497</tspan>

<tspan x="10" y="170">jslint /home/travis/build/kaizhu256/node-swgg-google-all/npm_scripts.sh.js</tspan>

<tspan x="10" y="186"> #1 Unexpected '\'.</tspan>

<tspan x="10" y="202">    "\ // line 55, col 3</tspan>

<tspan x="10" y="218"> #2 Unexpected '\'.</tspan>

<tspan x="10" y="234">    android|\ // line 56, col 11</tspan>

<tspan x="10" y="250"> #3 Unexpected '\'.</tspan>

<tspan x="10" y="266">    apps-script|\ // line 57, col 15</tspan>

<tspan x="10" y="282"> #4 Unexpected '\'.</tspan>

<tspan x="10" y="298">    c\\+\\+|\ // line 58, col 11</tspan>

<tspan x="10" y="314"> #5 Too many errors. (77% scanned).</tspan>

<tspan x="10" y="330">    undefined // line 58, col 11</tspan>

<tspan x="10" y="346">&gt; server listening on http-port 63304</tspan>

<tspan x="10" y="362">[node test-case 1 of 1 passed] - testCase_buildApp_default</tspan>

<tspan x="10" y="378"></tspan>

<tspan x="10" y="394">buildApp - merged test-report from file /home/travis/build/kaizhu256/node-swgg-google-all/tmp/bu\</tspan>
<tspan x="10" y="410">ild/test-report.json</tspan>

<tspan x="10" y="426"></tspan>

<tspan x="10" y="442">-------------------------------------------------------</tspan>

<tspan x="10" y="458">| test-report - buildApidoc - node - linux v10.0.0 - 2018-05-03T21:25:25.570Z</tspan>

<tspan x="10" y="474">|   60746 ms            0 failed        1 passed      |</tspan>

<tspan x="10" y="490">-------------------------------------------------------</tspan>

<tspan x="10" y="506">| test-report - npmTest - node - linux v10.0.0 - 2018-05-03T21:25:04.628Z</tspan>

<tspan x="10" y="522">|   18061 ms            0 failed        8 passed      |</tspan>

<tspan x="10" y="538">-------------------------------------------------------</tspan>

<tspan x="10" y="554"></tspan>

<tspan x="10" y="570">created test-report file /home/travis/build/kaizhu256/node-swgg-google-all/tmp/build/test-report\</tspan>
<tspan x="10" y="586">.html</tspan>

<tspan x="10" y="602"></tspan>

<tspan x="10" y="618"></tspan>

<tspan x="10" y="634">buildApp - 0 failed tests</tspan>

<tspan x="10" y="650"></tspan>

<tspan x="10" y="666"></tspan>

<tspan x="10" y="682">[MODE_BUILD=buildApp] - 2018-05-03T21:26:27.786Z - EXIT_CODE - 0</tspan>

</text>
</svg>
