<svg height="2334" width="720" xmlns="http://www.w3.org/2000/svg">
<rect height="2334" fill="#555" width="720"></rect>
<text fill="#7f7" font-family="Courier New" font-size="12" xml:space="preserve">
<tspan x="10" y="26">2018-04-24 00:13:25 +0800</tspan>

<tspan x="10" y="42">fix build</tspan>

<tspan x="10" y="58"></tspan>

<tspan x="10" y="74">2018-04-23 23:01:24 +0800</tspan>

<tspan x="10" y="90">update.build</tspan>

<tspan x="10" y="106"></tspan>

<tspan x="10" y="122">2018-04-23 18:55:15 +0800</tspan>

<tspan x="10" y="138">update.build</tspan>

<tspan x="10" y="154"></tspan>

<tspan x="10" y="170">2018-04-23 18:34:38 +0800</tspan>

<tspan x="10" y="186">- revert function browserTest with translate and scrape features removed</tspan>

<tspan x="10" y="202"></tspan>

<tspan x="10" y="218">2018-04-23 14:41:21 +0800</tspan>

<tspan x="10" y="234">fix build</tspan>

<tspan x="10" y="250"></tspan>

<tspan x="10" y="266">2018-04-23 13:05:21 +0800</tspan>

<tspan x="10" y="282">- add function ajaxCrawl</tspan>

<tspan x="10" y="298"></tspan>

<tspan x="10" y="314">2018-04-23 12:36:59 +0800</tspan>

<tspan x="10" y="330">- add function ajaxCrawl</tspan>

<tspan x="10" y="346"></tspan>

<tspan x="10" y="362">2018-04-23 11:59:53 +0800</tspan>

<tspan x="10" y="378">- add function ajaxCrawl</tspan>

<tspan x="10" y="394"></tspan>

<tspan x="10" y="410">2018-04-23 11:58:28 +0800</tspan>

<tspan x="10" y="426">slushy</tspan>

<tspan x="10" y="442"></tspan>

<tspan x="10" y="458">2018-04-23 11:57:29 +0800</tspan>

<tspan x="10" y="474">slushy</tspan>

<tspan x="10" y="490"></tspan>

<tspan x="10" y="506">2018-04-23 11:34:57 +0800</tspan>

<tspan x="10" y="522">slushy</tspan>

<tspan x="10" y="538"></tspan>

<tspan x="10" y="554">2018-04-23 11:09:13 +0800</tspan>

<tspan x="10" y="570">slushy</tspan>

<tspan x="10" y="586"></tspan>

<tspan x="10" y="602">2018-04-23 10:38:02 +0800</tspan>

<tspan x="10" y="618">slushy</tspan>

<tspan x="10" y="634"></tspan>

<tspan x="10" y="650">2018-04-23 10:28:58 +0800</tspan>

<tspan x="10" y="666">slushy</tspan>

<tspan x="10" y="682"></tspan>

<tspan x="10" y="698">2018-04-23 04:39:12 +0800</tspan>

<tspan x="10" y="714">slushy</tspan>

<tspan x="10" y="730"></tspan>

<tspan x="10" y="746">2018-04-23 04:04:15 +0800</tspan>

<tspan x="10" y="762">slushy</tspan>

<tspan x="10" y="778"></tspan>

<tspan x="10" y="794">2018-04-23 03:41:00 +0800</tspan>

<tspan x="10" y="810">slushy</tspan>

<tspan x="10" y="826"></tspan>

<tspan x="10" y="842">2018-04-23 03:03:02 +0800</tspan>

<tspan x="10" y="858">slushy</tspan>

<tspan x="10" y="874"></tspan>

<tspan x="10" y="890">2018-04-22 16:57:40 +0800</tspan>

<tspan x="10" y="906">update.build</tspan>

<tspan x="10" y="922"></tspan>

<tspan x="10" y="938">2018-02-17 06:40:18 +0700</tspan>

<tspan x="10" y="954">update.build</tspan>

<tspan x="10" y="970"></tspan>

<tspan x="10" y="986">2018-02-15 08:47:14 +0700</tspan>

<tspan x="10" y="1002">update.rollup</tspan>

<tspan x="10" y="1018"></tspan>

<tspan x="10" y="1034">2018-01-20 18:20:07 +0700</tspan>

<tspan x="10" y="1050">shUtility2DependentsSync</tspan>

<tspan x="10" y="1066"></tspan>

<tspan x="10" y="1082">2018-01-20 15:19:23 +0700</tspan>

<tspan x="10" y="1098">- update function normalizeSwaggerJson to override tag.description with x-swgg-tags0-override</tspan>

<tspan x="10" y="1114"></tspan>

<tspan x="10" y="1130">2018-01-20 14:21:31 +0700</tspan>

<tspan x="10" y="1146">- ignore env var $npm_package_swggAll and $npm_package_swggTags0 if package-name has -all sufix</tspan>

<tspan x="10" y="1162"></tspan>

<tspan x="10" y="1178">2018-01-20 14:00:06 +0700</tspan>

<tspan x="10" y="1194">re-enable.heroku.test-server</tspan>

<tspan x="10" y="1210"></tspan>

<tspan x="10" y="1226">2018-01-20 12:52:57 +0700</tspan>

<tspan x="10" y="1242">update</tspan>

<tspan x="10" y="1258"></tspan>

<tspan x="10" y="1274">2018-01-19 22:45:28 +0700</tspan>

<tspan x="10" y="1290">update</tspan>

<tspan x="10" y="1306"></tspan>

<tspan x="10" y="1322">2018-01-19 14:11:22 +0700</tspan>

<tspan x="10" y="1338">minor</tspan>

<tspan x="10" y="1354"></tspan>

<tspan x="10" y="1370">2018-01-16 10:09:33 +0700</tspan>

<tspan x="10" y="1386">- auto-sync master swagger.json from ../swgg-/assets.swgg.swagger.json</tspan>

<tspan x="10" y="1402">- disable heroku test-server</tspan>

<tspan x="10" y="1418"></tspan>

<tspan x="10" y="1434">2018-01-13 20:03:50 +0700</tspan>

<tspan x="10" y="1450">[npm publish] - npm publish 2018.1.12</tspan>

<tspan x="10" y="1466">- rename package-name swgg-google -&gt; swgg-google-all</tspan>

<tspan x="10" y="1482">- sync with $npm_package_githubRepoAlias</tspan>

<tspan x="10" y="1498"></tspan>

<tspan x="10" y="1514">2017-11-16 21:10:20 +0800</tspan>

<tspan x="10" y="1530">[npm publish] - npm publish 2017.11.15</tspan>

<tspan x="10" y="1546">- add property swaggerJson.externalDocs</tspan>

<tspan x="10" y="1562">- merge properties paramDef.x-swgg-example and paramDef.default -&gt; paramDef.default</tspan>

<tspan x="10" y="1578">- rename x-swgg-ref -&gt;</tspan>

<tspan x="10" y="1594">- ui - add cross-browser multiline placeholder support for textarea</tspan>

<tspan x="10" y="1610">- ui - add dynamic input validation</tspan>

<tspan x="10" y="1626"></tspan>

<tspan x="10" y="1642">2017-10-29 03:41:29 +0800</tspan>

<tspan x="10" y="1658">[npm publish] - npm publish 2017.10.23</tspan>

<tspan x="10" y="1674">- move http-links from summary to description</tspan>

<tspan x="10" y="1690">- update swgg library</tspan>

<tspan x="10" y="1706"></tspan>

<tspan x="10" y="1722">2017-10-23 00:47:03 +0800</tspan>

<tspan x="10" y="1738">[npm publish] - npm publish 2017.10.22</tspan>

<tspan x="10" y="1754">- rename package-name api-google -&gt; swgg-google</tspan>

<tspan x="10" y="1770">- add api GET /maps/api/place/autocomplete/json</tspan>

<tspan x="10" y="1786">- add api GET /maps/api/place/details/json</tspan>

<tspan x="10" y="1802">- add api GET /maps/api/place/nearbysearch/json</tspan>

<tspan x="10" y="1818">- add api GET /maps/api/place/photo</tspan>

<tspan x="10" y="1834">- add api GET /maps/api/place/queryautocomplete/json</tspan>

<tspan x="10" y="1850">- add api GET /maps/api/place/textsearch/json</tspan>

<tspan x="10" y="1866">- add api GET /v1/nearestRoads</tspan>

<tspan x="10" y="1882">- add api GET /v1/snapToRoads</tspan>

<tspan x="10" y="1898">- add api GET /v1/speedLimits</tspan>

<tspan x="10" y="1914">- add feature x-operationIdFromPath</tspan>

<tspan x="10" y="1930">- fix client-api initialization in browser</tspan>

<tspan x="10" y="1946"></tspan>

<tspan x="10" y="1962">2017-10-13 08:06:39 +0800</tspan>

<tspan x="10" y="1978">[npm publish] - npm publish 2017.10.12</tspan>

<tspan x="10" y="1994">- add top-level swagger-json property x-definitionsParameters</tspan>

<tspan x="10" y="2010">- document library-call equivalent to curl-request</tspan>

<tspan x="10" y="2026">- rename function swgg.apiDictUpdate -&gt; swgg.apiUpdate</tspan>

<tspan x="10" y="2042"></tspan>

<tspan x="10" y="2058">2017-10-08 21:18:23 +0800</tspan>

<tspan x="10" y="2074">[npm publish] - npm publish 2017.10.1</tspan>

<tspan x="10" y="2090">- initial package with google-maps and and google-translate apis</tspan>

<tspan x="10" y="2106"></tspan>

<tspan x="10" y="2122">2017-10-06 00:36:24 +0800</tspan>

<tspan x="10" y="2138">[npm publish] - npm publish 2017.10.2</tspan>

<tspan x="10" y="2154">- add file assets.utility2.rollup.js</tspan>

<tspan x="10" y="2170">- apidoc - document swgg.apiDict</tspan>

<tspan x="10" y="2186">- flesh out working example.js demo</tspan>

<tspan x="10" y="2202">- persist api-key to localStorage</tspan>

<tspan x="10" y="2218"></tspan>

<tspan x="10" y="2234">2017-10-04 16:57:45 +0800</tspan>

<tspan x="10" y="2250">[npm publish] - npm publish 2017.10.1</tspan>

<tspan x="10" y="2266">- create initial working swaggerdoc with /maps/api/directions and /maps/api/geocode apis</tspan>

<tspan x="10" y="2282"></tspan>

<tspan x="10" y="2298">2014-03-26 02:31:50 +0700</tspan>

<tspan x="10" y="2314">add blank README.md</tspan>

</text>
</svg>
