<svg height="2814" width="720" xmlns="http://www.w3.org/2000/svg">
<rect height="2814" fill="#555" width="720"></rect>
<text fill="#7f7" font-family="Courier New" font-size="12" xml:space="preserve">
<tspan x="10" y="26">2018-05-05 21:57:49 +0800</tspan>

<tspan x="10" y="42">update.build</tspan>

<tspan x="10" y="58"></tspan>

<tspan x="10" y="74">2018-05-05 21:04:25 +0800</tspan>

<tspan x="10" y="90">apidocRawFetch</tspan>

<tspan x="10" y="106"></tspan>

<tspan x="10" y="122">2018-05-04 17:16:09 +0800</tspan>

<tspan x="10" y="138">ajaxCrawl</tspan>

<tspan x="10" y="154"></tspan>

<tspan x="10" y="170">2018-05-04 07:38:51 +0800</tspan>

<tspan x="10" y="186">- revamp function buildLib</tspan>

<tspan x="10" y="202"></tspan>

<tspan x="10" y="218">2018-05-04 07:38:07 +0800</tspan>

<tspan x="10" y="234">- revamp function buildLib</tspan>

<tspan x="10" y="250"></tspan>

<tspan x="10" y="266">2018-05-04 07:01:45 +0800</tspan>

<tspan x="10" y="282">degeneracy</tspan>

<tspan x="10" y="298"></tspan>

<tspan x="10" y="314">2018-05-04 05:59:18 +0800</tspan>

<tspan x="10" y="330">ajaxcrawl</tspan>

<tspan x="10" y="346"></tspan>

<tspan x="10" y="362">2018-05-04 05:22:49 +0800</tspan>

<tspan x="10" y="378">- revamp function buildLib</tspan>

<tspan x="10" y="394"></tspan>

<tspan x="10" y="410">2018-05-04 00:48:37 +0800</tspan>

<tspan x="10" y="426">update.build</tspan>

<tspan x="10" y="442"></tspan>

<tspan x="10" y="458">2018-05-03 21:07:11 +0800</tspan>

<tspan x="10" y="474">update.build</tspan>

<tspan x="10" y="490"></tspan>

<tspan x="10" y="506">2018-04-24 00:13:25 +0800</tspan>

<tspan x="10" y="522">fix build</tspan>

<tspan x="10" y="538"></tspan>

<tspan x="10" y="554">2018-04-23 23:01:24 +0800</tspan>

<tspan x="10" y="570">update.build</tspan>

<tspan x="10" y="586"></tspan>

<tspan x="10" y="602">2018-04-23 18:55:15 +0800</tspan>

<tspan x="10" y="618">update.build</tspan>

<tspan x="10" y="634"></tspan>

<tspan x="10" y="650">2018-04-23 18:34:38 +0800</tspan>

<tspan x="10" y="666">- revert function browserTest with translate and scrape features removed</tspan>

<tspan x="10" y="682"></tspan>

<tspan x="10" y="698">2018-04-23 14:41:21 +0800</tspan>

<tspan x="10" y="714">fix build</tspan>

<tspan x="10" y="730"></tspan>

<tspan x="10" y="746">2018-04-23 13:05:21 +0800</tspan>

<tspan x="10" y="762">- add function ajaxCrawl</tspan>

<tspan x="10" y="778"></tspan>

<tspan x="10" y="794">2018-04-23 12:36:59 +0800</tspan>

<tspan x="10" y="810">- add function ajaxCrawl</tspan>

<tspan x="10" y="826"></tspan>

<tspan x="10" y="842">2018-04-23 11:59:53 +0800</tspan>

<tspan x="10" y="858">- add function ajaxCrawl</tspan>

<tspan x="10" y="874"></tspan>

<tspan x="10" y="890">2018-04-23 11:58:28 +0800</tspan>

<tspan x="10" y="906">slushy</tspan>

<tspan x="10" y="922"></tspan>

<tspan x="10" y="938">2018-04-23 11:57:29 +0800</tspan>

<tspan x="10" y="954">slushy</tspan>

<tspan x="10" y="970"></tspan>

<tspan x="10" y="986">2018-04-23 11:34:57 +0800</tspan>

<tspan x="10" y="1002">slushy</tspan>

<tspan x="10" y="1018"></tspan>

<tspan x="10" y="1034">2018-04-23 11:09:13 +0800</tspan>

<tspan x="10" y="1050">slushy</tspan>

<tspan x="10" y="1066"></tspan>

<tspan x="10" y="1082">2018-04-23 10:38:02 +0800</tspan>

<tspan x="10" y="1098">slushy</tspan>

<tspan x="10" y="1114"></tspan>

<tspan x="10" y="1130">2018-04-23 10:28:58 +0800</tspan>

<tspan x="10" y="1146">slushy</tspan>

<tspan x="10" y="1162"></tspan>

<tspan x="10" y="1178">2018-04-23 04:39:12 +0800</tspan>

<tspan x="10" y="1194">slushy</tspan>

<tspan x="10" y="1210"></tspan>

<tspan x="10" y="1226">2018-04-23 04:04:15 +0800</tspan>

<tspan x="10" y="1242">slushy</tspan>

<tspan x="10" y="1258"></tspan>

<tspan x="10" y="1274">2018-04-23 03:41:00 +0800</tspan>

<tspan x="10" y="1290">slushy</tspan>

<tspan x="10" y="1306"></tspan>

<tspan x="10" y="1322">2018-04-23 03:03:02 +0800</tspan>

<tspan x="10" y="1338">slushy</tspan>

<tspan x="10" y="1354"></tspan>

<tspan x="10" y="1370">2018-04-22 16:57:40 +0800</tspan>

<tspan x="10" y="1386">update.build</tspan>

<tspan x="10" y="1402"></tspan>

<tspan x="10" y="1418">2018-02-17 06:40:18 +0700</tspan>

<tspan x="10" y="1434">update.build</tspan>

<tspan x="10" y="1450"></tspan>

<tspan x="10" y="1466">2018-02-15 08:47:14 +0700</tspan>

<tspan x="10" y="1482">update.rollup</tspan>

<tspan x="10" y="1498"></tspan>

<tspan x="10" y="1514">2018-01-20 18:20:07 +0700</tspan>

<tspan x="10" y="1530">shUtility2DependentsSync</tspan>

<tspan x="10" y="1546"></tspan>

<tspan x="10" y="1562">2018-01-20 15:19:23 +0700</tspan>

<tspan x="10" y="1578">- update function normalizeSwaggerJson to override tag.description with x-swgg-tags0-override</tspan>

<tspan x="10" y="1594"></tspan>

<tspan x="10" y="1610">2018-01-20 14:21:31 +0700</tspan>

<tspan x="10" y="1626">- ignore env var $npm_package_swggAll and $npm_package_swggTags0 if package-name has -all sufix</tspan>

<tspan x="10" y="1642"></tspan>

<tspan x="10" y="1658">2018-01-20 14:00:06 +0700</tspan>

<tspan x="10" y="1674">re-enable.heroku.test-server</tspan>

<tspan x="10" y="1690"></tspan>

<tspan x="10" y="1706">2018-01-20 12:52:57 +0700</tspan>

<tspan x="10" y="1722">update</tspan>

<tspan x="10" y="1738"></tspan>

<tspan x="10" y="1754">2018-01-19 22:45:28 +0700</tspan>

<tspan x="10" y="1770">update</tspan>

<tspan x="10" y="1786"></tspan>

<tspan x="10" y="1802">2018-01-19 14:11:22 +0700</tspan>

<tspan x="10" y="1818">minor</tspan>

<tspan x="10" y="1834"></tspan>

<tspan x="10" y="1850">2018-01-16 10:09:33 +0700</tspan>

<tspan x="10" y="1866">- auto-sync master swagger.json from ../swgg-/assets.swgg.swagger.json</tspan>

<tspan x="10" y="1882">- disable heroku test-server</tspan>

<tspan x="10" y="1898"></tspan>

<tspan x="10" y="1914">2018-01-13 20:03:50 +0700</tspan>

<tspan x="10" y="1930">[npm publish] - npm publish 2018.1.12</tspan>

<tspan x="10" y="1946">- rename package-name swgg-google -&gt; swgg-google-all</tspan>

<tspan x="10" y="1962">- sync with $npm_package_githubRepoAlias</tspan>

<tspan x="10" y="1978"></tspan>

<tspan x="10" y="1994">2017-11-16 21:10:20 +0800</tspan>

<tspan x="10" y="2010">[npm publish] - npm publish 2017.11.15</tspan>

<tspan x="10" y="2026">- add property swaggerJson.externalDocs</tspan>

<tspan x="10" y="2042">- merge properties paramDef.x-swgg-example and paramDef.default -&gt; paramDef.default</tspan>

<tspan x="10" y="2058">- rename x-swgg-ref -&gt;</tspan>

<tspan x="10" y="2074">- ui - add cross-browser multiline placeholder support for textarea</tspan>

<tspan x="10" y="2090">- ui - add dynamic input validation</tspan>

<tspan x="10" y="2106"></tspan>

<tspan x="10" y="2122">2017-10-29 03:41:29 +0800</tspan>

<tspan x="10" y="2138">[npm publish] - npm publish 2017.10.23</tspan>

<tspan x="10" y="2154">- move http-links from summary to description</tspan>

<tspan x="10" y="2170">- update swgg library</tspan>

<tspan x="10" y="2186"></tspan>

<tspan x="10" y="2202">2017-10-23 00:47:03 +0800</tspan>

<tspan x="10" y="2218">[npm publish] - npm publish 2017.10.22</tspan>

<tspan x="10" y="2234">- rename package-name api-google -&gt; swgg-google</tspan>

<tspan x="10" y="2250">- add api GET /maps/api/place/autocomplete/json</tspan>

<tspan x="10" y="2266">- add api GET /maps/api/place/details/json</tspan>

<tspan x="10" y="2282">- add api GET /maps/api/place/nearbysearch/json</tspan>

<tspan x="10" y="2298">- add api GET /maps/api/place/photo</tspan>

<tspan x="10" y="2314">- add api GET /maps/api/place/queryautocomplete/json</tspan>

<tspan x="10" y="2330">- add api GET /maps/api/place/textsearch/json</tspan>

<tspan x="10" y="2346">- add api GET /v1/nearestRoads</tspan>

<tspan x="10" y="2362">- add api GET /v1/snapToRoads</tspan>

<tspan x="10" y="2378">- add api GET /v1/speedLimits</tspan>

<tspan x="10" y="2394">- add feature x-operationIdFromPath</tspan>

<tspan x="10" y="2410">- fix client-api initialization in browser</tspan>

<tspan x="10" y="2426"></tspan>

<tspan x="10" y="2442">2017-10-13 08:06:39 +0800</tspan>

<tspan x="10" y="2458">[npm publish] - npm publish 2017.10.12</tspan>

<tspan x="10" y="2474">- add top-level swagger-json property x-definitionsParameters</tspan>

<tspan x="10" y="2490">- document library-call equivalent to curl-request</tspan>

<tspan x="10" y="2506">- rename function swgg.apiDictUpdate -&gt; swgg.apiUpdate</tspan>

<tspan x="10" y="2522"></tspan>

<tspan x="10" y="2538">2017-10-08 21:18:23 +0800</tspan>

<tspan x="10" y="2554">[npm publish] - npm publish 2017.10.1</tspan>

<tspan x="10" y="2570">- initial package with google-maps and and google-translate apis</tspan>

<tspan x="10" y="2586"></tspan>

<tspan x="10" y="2602">2017-10-06 00:36:24 +0800</tspan>

<tspan x="10" y="2618">[npm publish] - npm publish 2017.10.2</tspan>

<tspan x="10" y="2634">- add file assets.utility2.rollup.js</tspan>

<tspan x="10" y="2650">- apidoc - document swgg.apiDict</tspan>

<tspan x="10" y="2666">- flesh out working example.js demo</tspan>

<tspan x="10" y="2682">- persist api-key to localStorage</tspan>

<tspan x="10" y="2698"></tspan>

<tspan x="10" y="2714">2017-10-04 16:57:45 +0800</tspan>

<tspan x="10" y="2730">[npm publish] - npm publish 2017.10.1</tspan>

<tspan x="10" y="2746">- create initial working swaggerdoc with /maps/api/directions and /maps/api/geocode apis</tspan>

<tspan x="10" y="2762"></tspan>

<tspan x="10" y="2778">2014-03-26 02:31:50 +0700</tspan>

<tspan x="10" y="2794">add blank README.md</tspan>

</text>
</svg>
