<svg height="926" width="720" xmlns="http://www.w3.org/2000/svg">
<rect height="926" fill="#555" width="720"></rect>
<text fill="#7f7" font-family="Courier New" font-size="12" xml:space="preserve">
<tspan x="10" y="26">2018-01-13 20:03:50 +0700</tspan>
<tspan x="10" y="42">[npm publish] - npm publish 2018.1.12</tspan>
<tspan x="10" y="58">- rename package-name swgg-google -&gt; swgg-google-all</tspan>
<tspan x="10" y="74">- sync with $npm_package_githubRepoAlias</tspan>
<tspan x="10" y="90"></tspan>
<tspan x="10" y="106">2017-11-16 21:10:20 +0800</tspan>
<tspan x="10" y="122">[npm publish] - npm publish 2017.11.15</tspan>
<tspan x="10" y="138">- add property swaggerJson.externalDocs</tspan>
<tspan x="10" y="154">- merge properties paramDef.x-swgg-example and paramDef.default -&gt; paramDef.default</tspan>
<tspan x="10" y="170">- rename x-swgg-ref -&gt;</tspan>
<tspan x="10" y="186">- ui - add cross-browser multiline placeholder support for textarea</tspan>
<tspan x="10" y="202">- ui - add dynamic input validation</tspan>
<tspan x="10" y="218"></tspan>
<tspan x="10" y="234">2017-10-29 03:41:29 +0800</tspan>
<tspan x="10" y="250">[npm publish] - npm publish 2017.10.23</tspan>
<tspan x="10" y="266">- move http-links from summary to description</tspan>
<tspan x="10" y="282">- update swgg library</tspan>
<tspan x="10" y="298"></tspan>
<tspan x="10" y="314">2017-10-23 00:47:03 +0800</tspan>
<tspan x="10" y="330">[npm publish] - npm publish 2017.10.22</tspan>
<tspan x="10" y="346">- rename package-name api-google -&gt; swgg-google</tspan>
<tspan x="10" y="362">- add api GET /maps/api/place/autocomplete/json</tspan>
<tspan x="10" y="378">- add api GET /maps/api/place/details/json</tspan>
<tspan x="10" y="394">- add api GET /maps/api/place/nearbysearch/json</tspan>
<tspan x="10" y="410">- add api GET /maps/api/place/photo</tspan>
<tspan x="10" y="426">- add api GET /maps/api/place/queryautocomplete/json</tspan>
<tspan x="10" y="442">- add api GET /maps/api/place/textsearch/json</tspan>
<tspan x="10" y="458">- add api GET /v1/nearestRoads</tspan>
<tspan x="10" y="474">- add api GET /v1/snapToRoads</tspan>
<tspan x="10" y="490">- add api GET /v1/speedLimits</tspan>
<tspan x="10" y="506">- add feature x-operationIdFromPath</tspan>
<tspan x="10" y="522">- fix client-api initialization in browser</tspan>
<tspan x="10" y="538"></tspan>
<tspan x="10" y="554">2017-10-13 08:06:39 +0800</tspan>
<tspan x="10" y="570">[npm publish] - npm publish 2017.10.12</tspan>
<tspan x="10" y="586">- add top-level swagger-json property x-definitionsParameters</tspan>
<tspan x="10" y="602">- document library-call equivalent to curl-request</tspan>
<tspan x="10" y="618">- rename function swgg.apiDictUpdate -&gt; swgg.apiUpdate</tspan>
<tspan x="10" y="634"></tspan>
<tspan x="10" y="650">2017-10-08 21:18:23 +0800</tspan>
<tspan x="10" y="666">[npm publish] - npm publish 2017.10.1</tspan>
<tspan x="10" y="682">- initial package with google-maps and and google-translate apis</tspan>
<tspan x="10" y="698"></tspan>
<tspan x="10" y="714">2017-10-06 00:36:24 +0800</tspan>
<tspan x="10" y="730">[npm publish] - npm publish 2017.10.2</tspan>
<tspan x="10" y="746">- add file assets.utility2.rollup.js</tspan>
<tspan x="10" y="762">- apidoc - document swgg.apiDict</tspan>
<tspan x="10" y="778">- flesh out working example.js demo</tspan>
<tspan x="10" y="794">- persist api-key to localStorage</tspan>
<tspan x="10" y="810"></tspan>
<tspan x="10" y="826">2017-10-04 16:57:45 +0800</tspan>
<tspan x="10" y="842">[npm publish] - npm publish 2017.10.1</tspan>
<tspan x="10" y="858">- create initial working swaggerdoc with /maps/api/directions and /maps/api/geocode apis</tspan>
<tspan x="10" y="874"></tspan>
<tspan x="10" y="890">2014-03-26 02:31:50 +0700</tspan>
<tspan x="10" y="906">add blank README.md</tspan>
</text>
</svg>
